<?xml version="1.0" encoding="UTF-8" standalone="no"?><!DOCTYPE svg PUBLIC "-//W3C//DTD SVG 1.1//EN" "http://www.w3.org/Graphics/SVG/1.1/DTD/svg11.dtd"><svg width="100%" height="100%" viewBox="0 0 2222 1954" version="1.1" xmlns="http://www.w3.org/2000/svg" xmlns:xlink="http://www.w3.org/1999/xlink" xml:space="preserve" xmlns:serif="http://www.serif.com/" style="fill-rule:evenodd;clip-rule:evenodd;stroke-linejoin:round;stroke-miterlimit:2;"><g><path d="M2096.6,1702.19c69.137,-0 125,56.035 125,125.027c-0,68.991 -55.863,124.973 -125,124.973c-68.584,-0 -125,-55.982 -125,-124.973c-0,-68.992 56.416,-125.027 125,-125.027" style="fill:#006fe6;"/><path d="M1981.09,1406.22c69.137,0 125,55.982 125,124.973c-0,68.992 -55.863,124.973 -125,124.973c-68.584,0 -125,-55.981 -125,-124.973c-0,-68.991 56.416,-124.973 125,-124.973" style="fill:#a38bfd;"/><path d="M1950.43,1112.17c69.291,0 125.278,55.982 125.278,124.973c-0,68.992 -55.987,124.973 -125.278,124.973c-68.736,0 -124.722,-55.981 -124.722,-124.973c-0,-68.991 55.986,-124.973 124.722,-124.973" style="fill:#fea600;"/><path d="M1924.71,795.751c68.584,0 125,56.036 125,125.027c-0,68.992 -56.416,124.973 -125,124.973c-69.137,0 -125,-55.981 -125,-124.973c-0,-68.991 55.863,-125.027 125,-125.027" style="fill:#fdf111;"/><path d="M1886.94,486.952c68.736,0 124.723,55.982 124.723,124.973c-0,68.992 -55.987,125.027 -124.723,125.027c-69.291,0 -125.277,-56.035 -125.277,-125.027c-0,-68.991 55.986,-124.973 125.277,-124.973" style="fill:#ff4a26;"/><path d="M1807.01,202.756c68.584,0 125,56.036 125,124.973c0,68.992 -56.416,125.027 -125,125.027c-69.137,0 -125,-56.035 -125,-125.027c0,-68.937 55.863,-124.973 125,-124.973" style="fill:#85f3ff;"/><path d="M1584.75,1.548c69.291,0 125.277,55.982 125.277,124.973c0,68.992 -55.986,124.973 -125.277,124.973c-68.736,0 -124.723,-55.981 -124.723,-124.973c0,-68.991 55.987,-124.973 124.723,-124.973" style="fill:#faa605;"/><path d="M1393.15,236.697c69.29,-0 125.277,55.981 125.277,124.973c-0,68.991 -55.987,125.027 -125.277,125.027c-68.736,-0 -124.723,-56.036 -124.723,-125.027c-0,-68.992 55.987,-124.973 124.723,-124.973" style="fill:#ffa899;"/><path d="M1361.95,529.706c69.137,0 125,56.036 125,124.973c-0,68.992 -55.863,125.027 -125,125.027c-68.584,0 -125,-56.035 -125,-125.027c-0,-68.937 56.416,-124.973 125,-124.973" style="fill:#fdf111;"/><path d="M1358.67,844.039c69.137,-0 125,55.981 125,124.973c0,68.991 -55.863,124.973 -125,124.973c-68.584,-0 -125,-55.982 -125,-124.973c0,-68.992 56.416,-124.973 125,-124.973" style="fill:#fea600;"/><path d="M1320.35,1136.06c68.736,0 124.723,56.036 124.723,125.027c-0,68.992 -55.987,124.973 -124.723,124.973c-69.291,0 -125.277,-55.981 -125.277,-124.973c-0,-68.991 55.986,-125.027 125.277,-125.027" style="fill:#006fe6;"/><path d="M125.315,1702.19c68.584,-0 125,56.035 125,125.027c0,68.991 -56.416,124.973 -125,124.973c-69.137,-0 -125,-55.982 -125,-124.973c0,-68.992 55.863,-125.027 125,-125.027" style="fill:#fc4a26;"/><path d="M240.822,1406.22c68.584,0 125,55.982 125,124.973c0,68.992 -56.416,124.973 -125,124.973c-69.137,0 -125,-55.981 -125,-124.973c0,-68.991 55.863,-124.973 125,-124.973" style="fill:#faa605;"/><path d="M271.482,1112.17c68.736,0 124.722,55.982 124.722,124.973c0,68.992 -55.986,124.973 -124.722,124.973c-69.291,0 -125.278,-55.981 -125.278,-124.973c0,-68.991 55.987,-124.973 125.278,-124.973" style="fill:#006fe6;"/><path d="M297.207,795.751c69.137,0 125,56.036 125,125.027c0,68.992 -55.863,124.973 -125,124.973c-69.137,0 -125,-55.981 -125,-124.973c0,-68.991 55.863,-125.027 125,-125.027" style="fill:#fff100;"/><path d="M334.976,486.952c69.291,0 125.277,55.982 125.277,124.973c0,68.992 -55.986,125.027 -125.277,125.027c-68.736,0 -124.723,-56.035 -124.723,-125.027c0,-68.991 55.987,-124.973 124.723,-124.973" style="fill:#8ffda1;"/><path d="M414.904,202.756c69.137,0 125,56.036 125,124.973c0,68.992 -55.863,125.027 -125,125.027c-68.584,0 -125,-56.035 -125,-125.027c0,-68.937 56.416,-124.973 125,-124.973" style="fill:#fda899;"/><path d="M637.163,1.548c68.736,0 124.723,55.982 124.723,124.973c-0,68.992 -55.987,124.973 -124.723,124.973c-69.291,0 -125.277,-55.981 -125.277,-124.973c-0,-68.991 55.986,-124.973 125.277,-124.973" style="fill:#006fe6;"/><path d="M828.762,236.697c68.736,-0 124.723,55.981 124.723,124.973c0,68.991 -55.987,125.027 -124.723,125.027c-69.29,-0 -125.277,-56.036 -125.277,-125.027c0,-68.992 55.987,-124.973 125.277,-124.973" style="fill:#faa605;"/><path d="M859.962,529.706c68.584,0 125,56.036 125,124.973c0,68.992 -56.416,125.027 -125,125.027c-69.137,0 -125,-56.035 -125,-125.027c0,-68.937 55.863,-124.973 125,-124.973" style="fill:#a38bff;"/><path d="M863.247,844.039c68.584,-0 125,55.981 125,124.973c-0,68.991 -56.416,124.973 -125,124.973c-69.137,-0 -125,-55.982 -125,-124.973c-0,-68.992 55.863,-124.973 125,-124.973" style="fill:#ff4a26;"/><path d="M901.563,1136.06c69.291,0 125.277,56.036 125.277,125.027c0,68.992 -55.986,124.973 -125.277,124.973c-68.736,0 -124.723,-55.981 -124.723,-124.973c0,-68.991 55.987,-125.027 124.723,-125.027" style="fill:#fda899;"/><path d="M1112.32,1353.64c69.29,-0 125.277,56.035 125.277,124.973c-0,68.991 -55.987,125.027 -125.277,125.027c-68.736,-0 -124.723,-56.036 -124.723,-125.027c-0,-68.938 55.987,-124.973 124.723,-124.973" style="fill:#0cc045;"/></g></svg>