<?xml version="1.0" encoding="UTF-8" standalone="no"?><!DOCTYPE svg PUBLIC "-//W3C//DTD SVG 1.1//EN" "http://www.w3.org/Graphics/SVG/1.1/DTD/svg11.dtd"><svg width="100%" height="100%" viewBox="0 0 3667 786" version="1.1" xmlns="http://www.w3.org/2000/svg" xmlns:xlink="http://www.w3.org/1999/xlink" xml:space="preserve" xmlns:serif="http://www.serif.com/" style="fill-rule:evenodd;clip-rule:evenodd;stroke-linejoin:round;stroke-miterlimit:2;"><g><path d="M0,785.888l0,-196.322l782.276,0l0,196.322l-782.276,0Z" style="fill:#68272d;"/><path d="M0,393.244l0,196.322l782.276,0l0,-196.322l-782.276,0Z" style="fill:#ff4a26;"/><path d="M0,196.922l0,196.322l782.276,0l0,-196.322l-782.276,0Z" style="fill:#ffa899;"/><path d="M0,196.322l0,-196.322l782.276,0l0,196.322l-782.276,0Z" style="fill:#ffd4bf;"/></g><g><path d="M848.354,785.888l0,-196.322l782.276,0l0,196.322l-782.276,0Z" style="fill:#b75b00;"/><path d="M848.354,589.566l0,-196.322l782.276,0l0,196.322l-782.276,0Z" style="fill:#fea600;"/><path d="M848.354,393.244l0,-196.322l782.276,0l0,196.322l-782.276,0Z" style="fill:#fff100;"/><path d="M848.354,196.922l0,-196.322l782.276,0l0,196.322l-782.276,0Z" style="fill:#fffbb1;"/></g><g><path d="M1696.71,785.888l0,-196.322l782.276,0l0,196.322l-782.276,0Z" style="fill:#236136;"/><path d="M1696.71,589.566l0,-196.322l782.276,0l0,196.322l-782.276,0Z" style="fill:#0cc045;"/><path d="M1696.71,393.844l0,-196.322l782.276,0l0,196.322l-782.276,0Z" style="fill:#8fffa1;"/><path d="M1696.71,196.922l0,-196.322l782.276,0l0,196.322l-782.276,0Z" style="fill:#c9ffd5;"/></g><g><path d="M2545.06,785.888l0,-196.322l782.276,0l0,196.322l-782.276,0Z" style="fill:#1e3967;"/><path d="M2545.06,589.566l0,-196.322l782.276,0l0,196.322l-782.276,0Z" style="fill:#1675da;"/><path d="M2545.06,393.244l0,-196.322l782.276,0l0,196.322l-782.276,0Z" style="fill:#85f3ff;"/><path d="M2545.06,196.922l0,-196.322l782.276,0l0,196.322l-782.276,0Z" style="fill:#cffffa;"/></g><g><path d="M3450.87,785.888l-0,-196.322l215.276,0l-0,196.322l-215.276,0Z" style="fill:#423d34;"/><path d="M3450.87,589.566l-0,-196.322l215.276,0l-0,196.322l-215.276,0Z" style="fill:#90856f;"/><path d="M3450.87,393.244l-0,-196.322l215.276,0l-0,196.322l-215.276,0Z" style="fill:#cbc5b9;"/><path d="M3450.87,196.922l-0,-196.322l215.276,0l-0,196.322l-215.276,0Z" style="fill:#f5f1ea;"/></g></svg>